<?xml version="1.0" encoding="utf-8"?>
<!-- Generator: Adobe Illustrator 20.0.0, SVG Export Plug-In . SVG Version: 6.00 Build 0)  -->
<svg version="1.1" id="Layer_1" xmlns="http://www.w3.org/2000/svg" xmlns:xlink="http://www.w3.org/1999/xlink" x="0px" y="0px"
	 viewBox="0 0 48 48" style="enable-background:new 0 0 48 48;" xml:space="preserve">
<style type="text/css">
	.st0{fill:#FFFFFF;}
</style>
<title>Facebook-black</title>
<desc>Created with Sketch.</desc>
<g id="Icons">
	<g id="Black" transform="translate(-200.000000, -160.000000)">
		<path id="Facebook" class="st0" d="M225.6,208h-23c-1.5,0-2.6-1.2-2.6-2.6v-42.7c0-1.5,1.2-2.6,2.6-2.6h42.7
			c1.5,0,2.6,1.2,2.6,2.6v42.7c0,1.5-1.2,2.6-2.6,2.6h-12.2v-18.6h6.2l0.9-7.2h-7.2v-4.6c0-2.1,0.6-3.5,3.6-3.5l3.8,0v-6.5
			c-0.7-0.1-2.9-0.3-5.6-0.3c-5.5,0-9.3,3.4-9.3,9.6v5.3h-6.3v7.2h6.3V208L225.6,208z"/>
	</g>
</g>
</svg>
