<?xml version="1.0" encoding="utf-8"?>
<!-- Generator: Adobe Illustrator 21.0.2, SVG Export Plug-In . SVG Version: 6.00 Build 0)  -->
<svg version="1.1" id="Layer_1" xmlns="http://www.w3.org/2000/svg" xmlns:xlink="http://www.w3.org/1999/xlink" x="0px" y="0px"
	 viewBox="0 0 200 200" style="enable-background:new 0 0 200 200;" xml:space="preserve">
<style type="text/css">
	.st0{fill:#FFFFFF;}
	.st1{fill:none;stroke:#ED1C24;stroke-width:5;stroke-miterlimit:10;}
</style>
<path id="heart" class="st0" d="M144,15.3c-17.9,0-33.8,8.4-44,21.5c-10.2-13-26.1-21.5-44-21.5c-30.9,0-56,25.1-56,56
	c-0.4,26.3,16,58.9,100,116.5c71.8-45.1,99.7-83.1,100-116.5C200,40.4,174.9,15.3,144,15.3z"/>
<line id="flatline" class="st1" x1="0" y1="95.3" x2="200" y2="95.3"/>
<path id="ekg" class="st1" d="M0.3,95c18.6,0.1,37.1,0.2,55.7,0.3l10.7,21.3l23-58.7l20.7,95L134,80l4.7,16.3h52.7h8.7"/>
</svg>
