<svg xmlns="http://www.w3.org/2000/svg" xmlns:xlink="http://www.w3.org/1999/xlink" viewBox="0 0 523.86 773.07">
  <defs>
    <style>
      .cls-1, .cls-13, .cls-15, .cls-18, .cls-21, .cls-25, .cls-26, .cls-29, .cls-3, .cls-31, .cls-33, .cls-34, .cls-37, .cls-38, .cls-39, .cls-4, .cls-43, .cls-48, .cls-51, .cls-55, .cls-6, .cls-63, .cls-9 {
        fill: none;
      }

      .cls-2 {
        fill: #ffcf8b;
      }

      .cls-2, .cls-3, .cls-4 {
        stroke: #eaa468;
      }

      .cls-13, .cls-15, .cls-18, .cls-2, .cls-21, .cls-25, .cls-26, .cls-29, .cls-3, .cls-31, .cls-33, .cls-34, .cls-37, .cls-38, .cls-39, .cls-4, .cls-43, .cls-48, .cls-51, .cls-55, .cls-58, .cls-59, .cls-6, .cls-62, .cls-63, .cls-9 {
        stroke-miterlimit: 10;
      }

      .cls-13, .cls-15, .cls-18, .cls-2, .cls-21, .cls-25, .cls-26, .cls-29, .cls-3, .cls-31, .cls-33, .cls-34, .cls-37, .cls-43, .cls-48, .cls-51, .cls-55, .cls-6, .cls-9 {
        stroke-width: 3px;
      }

      .cls-18, .cls-26, .cls-3, .cls-34, .cls-38, .cls-39, .cls-4, .cls-48, .cls-55, .cls-6, .cls-63 {
        stroke-linecap: round;
      }

      .cls-5 {
        fill: #eaa468;
      }

      .cls-6 {
        stroke: #815a36;
      }

      .cls-7 {
        clip-path: url(#clip-path);
      }

      .cls-8 {
        fill: #f1f2f2;
      }

      .cls-9 {
        stroke: #e6e7e8;
      }

      .cls-10 {
        clip-path: url(#clip-path-3);
      }

      .cls-11 {
        clip-path: url(#clip-path-4);
      }

      .cls-12 {
        fill: #f9b08c;
      }

      .cls-13 {
        stroke: #f5a47c;
      }

      .cls-14 {
        fill: #da7357;
      }

      .cls-15, .cls-18 {
        stroke: #e66859;
      }

      .cls-16 {
        fill: #ee8c63;
      }

      .cls-17 {
        fill: #ee8c62;
      }

      .cls-19 {
        clip-path: url(#clip-path-6);
      }

      .cls-20 {
        fill: #802318;
      }

      .cls-21 {
        stroke: #7b2016;
      }

      .cls-22 {
        fill: #902a1d;
      }

      .cls-23 {
        clip-path: url(#clip-path-9);
      }

      .cls-24 {
        fill: #f6cf5e;
      }

      .cls-25, .cls-26 {
        stroke: #e6b632;
      }

      .cls-27 {
        clip-path: url(#clip-path-11);
      }

      .cls-28 {
        fill: #e52248;
      }

      .cls-29 {
        stroke: #da1c5c;
      }

      .cls-30 {
        fill: #0072a0;
      }

      .cls-31 {
        stroke: #0b688c;
      }

      .cls-32 {
        fill: #924724;
      }

      .cls-33, .cls-34 {
        stroke: #7f4023;
      }

      .cls-35 {
        clip-path: url(#clip-path-13);
      }

      .cls-36 {
        fill: #862c5d;
      }

      .cls-37 {
        stroke: #5e204c;
      }

      .cls-38 {
        stroke: #2a3582;
      }

      .cls-38, .cls-39 {
        stroke-width: 4px;
      }

      .cls-39 {
        stroke: #de2e2d;
      }

      .cls-40 {
        fill: #a3466e;
      }

      .cls-41 {
        clip-path: url(#clip-path-17);
      }

      .cls-42 {
        fill: #f37365;
      }

      .cls-43 {
        stroke: #c64c54;
      }

      .cls-44 {
        fill: #da897a;
      }

      .cls-45 {
        fill: #de6c6f;
      }

      .cls-46 {
        fill: #e97b7e;
      }

      .cls-47 {
        fill: #f6988e;
      }

      .cls-48 {
        stroke: #de5a57;
      }

      .cls-49 {
        clip-path: url(#clip-path-19);
      }

      .cls-50 {
        fill: #f37578;
      }

      .cls-51 {
        stroke: #a21e23;
      }

      .cls-52 {
        fill: #a21e23;
      }

      .cls-53 {
        fill: #d51e46;
      }

      .cls-54 {
        fill: #be1f48;
      }

      .cls-55 {
        stroke: #4a52a3;
      }

      .cls-56 {
        fill: #a21e24;
      }

      .cls-57 {
        fill: #e73a45;
      }

      .cls-58 {
        fill: #fff;
      }

      .cls-58, .cls-59, .cls-62, .cls-63 {
        stroke: #333;
      }

      .cls-59 {
        fill: url(#linear-gradient);
      }

      .cls-60 {
        fill: #333;
      }

      .cls-61 {
        opacity: 0.51;
      }

      .cls-62 {
        fill: #1a1a1a;
      }
    </style>
    <clipPath id="clip-path" transform="translate(-44.06 -13.82)">
      <rect class="cls-1" x="307.09" y="612.88" width="138.07" height="138.07" transform="translate(-306.19 1057.32) rotate(-89.94)"/>
    </clipPath>
    <clipPath id="clip-path-3" transform="translate(-44.06 -13.82)">
      <rect class="cls-1" x="165.83" y="434.59" width="277.04" height="277.04"/>
    </clipPath>
    <clipPath id="clip-path-4" transform="translate(-44.06 -13.82)">
      <rect class="cls-1" x="228.09" y="480.29" width="161.44" height="161.44"/>
    </clipPath>
    <clipPath id="clip-path-6" transform="translate(-44.06 -13.82)">
      <rect class="cls-1" x="156.88" y="318.37" width="240.15" height="240.15"/>
    </clipPath>
    <clipPath id="clip-path-9" transform="translate(-44.06 -13.82)">
      <rect class="cls-1" x="210.86" y="408.76" width="130.2" height="130.2" transform="translate(-41.83 26.97) rotate(-5.2)"/>
    </clipPath>
    <clipPath id="clip-path-11" transform="translate(-44.06 -13.82)">
      <rect class="cls-1" x="206.07" y="422.37" width="186.62" height="186.62"/>
    </clipPath>
    <clipPath id="clip-path-13" transform="translate(-44.06 -13.82)">
      <rect class="cls-1" x="312.82" y="402.29" width="96.93" height="96.93" transform="translate(-209.2 541.6) rotate(-60.34)"/>
    </clipPath>
    <clipPath id="clip-path-17" transform="translate(-44.06 -13.82)">
      <rect class="cls-1" x="212.79" y="203.28" width="186.16" height="186.16"/>
    </clipPath>
    <clipPath id="clip-path-19" transform="translate(-44.06 -13.82)">
      <rect class="cls-1" x="244.2" y="291.9" width="113.77" height="113.77"/>
    </clipPath>
    <linearGradient id="linear-gradient" x1="371.97" y1="94.74" x2="376" y2="94.74" gradientTransform="matrix(-1, 0, 0, 1, 611.98, 0)" gradientUnits="userSpaceOnUse">
      <stop offset="0.04" stop-color="#a2c5cb"/>
      <stop offset="0.41" stop-color="#a4c6cc"/>
      <stop offset="0.58" stop-color="#accbd0"/>
      <stop offset="0.71" stop-color="#b9d3d8"/>
      <stop offset="0.82" stop-color="#cbdee2"/>
      <stop offset="0.91" stop-color="#e2edef"/>
      <stop offset="1" stop-color="#fff"/>
    </linearGradient>
  </defs>
  <title>humananatomyfix</title>
  <g id="body">
    <path class="cls-2" d="M533,781.65l-4.69-55.74a.79.79,0,0,1,.49-.8l3.14-1.28a.62.62,0,0,1,.85.52l4.11,49.21a4.15,4.15,0,0,0,4.32,2.79c3.49-.14,3.76-4.18,3.76-4.18l-4.38-51.3a1.24,1.24,0,0,1,.85-1.29l.77-.26a1.44,1.44,0,0,1,1.47.34,19.8,19.8,0,0,1,5.89,13.89,15.72,15.72,0,0,0,6.69,13.24c12.41,4.32,9.89-1.81,9.89-1.81s-4.57-5.57-7.89-29.71-27-49.23-27-49.23c-.95-5.21-7.68-33.36-7.68-33.36C504.76,505.15,476.89,467,476.89,467c-.6-33-12.1-80.16-12.1-80.16s2.72-62.31.6-83.79c0,0-1.16-19.4-13.5-34.31s-101.3-46.28-107.47-73-4.59-32.05-4.59-32.05,27.42-30.22,28-52.61c.26-10.43,3.12-18.49,2.93-26.53-.37-16-8.43-33.93-18.12-46.7C345.7,28.68,336,20.27,323,17.58a112.83,112.83,0,0,0-48.12.7A59,59,0,0,0,233.1,56.79a181.9,181.9,0,0,0-7.24,27.84,4.1,4.1,0,0,0,.6,2.88c.48.76,1.11,1.71,1.72,2.52a4.1,4.1,0,0,1,.82,2.63l-.14,3.27a4.3,4.3,0,0,1-.89,2.7c-3.18,3.94-14.69,18.33-16.6,22.49-2.21,4.84-2.21,5.94-.14,7.74,1.75,1.52,9.72,5.5,12.15,6.7a1.17,1.17,0,0,1,.65,1.13l-.12,1.81a3.37,3.37,0,0,1-1.11,2.27c-1.79,1.62-5,6.34-.78,7l12.43,3.51s-18.52-5.53-12.85,6.22c0,0,2.76,3.18,5.94,4.15s-1.11,5.53-1.11,5.53-11.75,12.16,4.42,18.52c15.15,6,25.33-4.1,38.94,15.64a15.84,15.84,0,0,1,2.79,9v4.86a2.4,2.4,0,0,1-1.49,2.23c-12.95,5.35-103.56,43.53-108.81,48.53-4,3.83-13.61,13.31-15.73,34.79s.6,83.79.6,83.79-11.49,47.19-12.1,80.16c0,0-27.86,38.19-46.77,165.73,0,0-6.73,28.15-7.68,33.36,0,0-23.67,25.09-27,49.23s-7.89,29.71-7.89,29.71-2.51,6.13,9.89,1.81a15.72,15.72,0,0,0,6.69-13.24,19.76,19.76,0,0,1,5.58-13.58,2.09,2.09,0,0,1,2.17-.52l.2.07a1.49,1.49,0,0,1,1,1.54L67,769.81s.28,4,3.76,4.18A4.15,4.15,0,0,0,75,771.21l4.06-48.63a1,1,0,0,1,1.44-.88l2.16.88a1.43,1.43,0,0,1,.89,1.45l-4.65,55.27s-.56,3.35,3.35,3.9,4.88-3.35,4.88-3.35l4.35-52.08a.94.94,0,0,1,1.32-.79l2.07.91A1.81,1.81,0,0,1,96,729.7l-3.38,41.51s-.42,4,3.21,4.46a4.73,4.73,0,0,0,4.88-3.07L103.93,733a.91.91,0,0,1,1.27-.76l.77.34a2.37,2.37,0,0,1,1.4,2.36L105,763.26s.42,3.35,3.35,4,5-3.07,5-3.07l2.51-32.48s7.25-9.2.7-35.69,7.69-67,7.69-67,32-78.76,44.65-90.83,23.59-66.94,23.59-66.94,4.94-29.08,10.42-29.08c0,0,14.55,22.49,6.64,63.23-.95,4.87-1.84,20.17-1.88,25.13l-3.4,22.34a67.88,67.88,0,0,1-1.47,13.44C197.5,591.46,179,684.15,180.43,750.7h121s6-55.54,4.41-65.15h8.57s1.3,56.06,3.11,65.15H437.42s-1.38-119-18.08-170.14a135.49,135.49,0,0,1-5.55-25.37l-10.24-82.34s1.54-33.42,4.11-36,11.79,36.77,11.79,36.77,11,54.87,23.59,66.94,44.65,90.83,44.65,90.83,14.24,40.54,7.69,67c-4.88,19.72-2.11,29.86-.37,33.75a16.21,16.21,0,0,1,1.33,5.36l2.25,29.06s2.09,3.76,5,3.07,3.35-4,3.35-4l-2.42-28.91a1.49,1.49,0,0,1,.89-1.49l1.17-.52a1,1,0,0,1,1.46.87L511.29,775a4.73,4.73,0,0,0,4.88,3.07c3.62-.42,3.21-4.46,3.21-4.46L516,731.84a1.51,1.51,0,0,1,.9-1.5l1.92-.84a1.22,1.22,0,0,1,1.7,1l4.32,51.7S529.14,789.73,533,781.65Z" transform="translate(-44.06 -13.82)"/>
    <path class="cls-3" d="M415.85,339.68s-2.79,84.73-8,95.39" transform="translate(-44.06 -13.82)"/>
    <path class="cls-3" d="M195,342.23s3.44,88.91,8.8,100" transform="translate(-44.06 -13.82)"/>
  </g>
  <g id="face">
    <path class="cls-4" d="M225.54,132.3s-6.18-3.42-10.74-1.63" transform="translate(-44.06 -13.82)"/>
    <path class="cls-5" d="M308.48,151.33a16.64,16.64,0,0,1-.87,8.19,24.05,24.05,0,0,1-4.17,7.3,38.37,38.37,0,0,1-13.36,10,66,66,0,0,1-15.74,5,84.31,84.31,0,0,1-16.29,1.57c5.32-1.23,10.58-2.4,15.75-3.85,2.58-.74,5.14-1.5,7.64-2.41,1.26-.43,2.49-.93,3.73-1.4s2.45-1,3.62-1.62a47.33,47.33,0,0,0,6.87-3.85,36.14,36.14,0,0,0,6-5,26.24,26.24,0,0,0,4.57-6.33A19.49,19.49,0,0,0,308.48,151.33Z" transform="translate(-44.06 -13.82)"/>
    <path class="cls-6" d="M234.62,80.16s2.92-3.11,21.46,5.14" transform="translate(-44.06 -13.82)"/>
    <path class="cls-3" d="M307.47,104.59s4.89-15.91,16.16-12.68,10,17.73,7.71,21c-1.89,2.63-10.81,13-14.06,16.7a5.54,5.54,0,0,1-4.48,2,3.9,3.9,0,0,1-3.17-1.77" transform="translate(-44.06 -13.82)"/>
  </g>
  <g id="bone">
    <g class="cls-7">
      <g class="cls-7">
        <path class="cls-8" d="M392.29,722.6c-3.76-13.09-15.61-55.3-17.78-75.57a10.75,10.75,0,1,0-11.7-18l-.71-.18a11.24,11.24,0,0,0-5.4,21.81C360.59,666,371.3,709,373.86,726.88a10.75,10.75,0,1,0,12.66,17l.73,0a11.24,11.24,0,0,0,5-21.29" transform="translate(-44.06 -13.82)"/>
        <path class="cls-9" d="M392.29,722.6c-3.76-13.09-15.61-55.3-17.78-75.57a10.75,10.75,0,1,0-11.7-18l-.71-.18a11.24,11.24,0,0,0-5.4,21.81C360.59,666,371.3,709,373.86,726.88a10.75,10.75,0,1,0,12.66,17l.73,0a11.24,11.24,0,0,0,5-21.29Z" transform="translate(-44.06 -13.82)"/>
        <path class="cls-8" d="M378.4,725.73s3.12-.18,4.86,1.31" transform="translate(-44.06 -13.82)"/>
        <path class="cls-9" d="M378.4,725.73s3.12-.18,4.86,1.31" transform="translate(-44.06 -13.82)"/>
        <path class="cls-8" d="M386.51,743.86s5.18-5.88.71-11.6" transform="translate(-44.06 -13.82)"/>
        <path class="cls-9" d="M386.51,743.86s5.18-5.88.71-11.6" transform="translate(-44.06 -13.82)"/>
        <path class="cls-8" d="M357.4,651.14s7.09,2.39,12.26-4.81" transform="translate(-44.06 -13.82)"/>
        <path class="cls-9" d="M357.4,651.14s7.09,2.39,12.26-4.81" transform="translate(-44.06 -13.82)"/>
        <path class="cls-8" d="M369.93,635.45s-1-4.44-4.56-4.29" transform="translate(-44.06 -13.82)"/>
        <path class="cls-9" d="M369.93,635.45s-1-4.44-4.56-4.29" transform="translate(-44.06 -13.82)"/>
      </g>
    </g>
  </g>
  <g id="intestines">
    <g class="cls-10">
      <g class="cls-11">
        <path class="cls-12" d="M340,525.63a6.59,6.59,0,0,0-.42,4.39c.73,3.55,3.24,7.09,1.79,11-1.61,4.29-7.31,8.35-11.92,8.06s-6.78-4.48-8-8.36c-1.06-3.44,1.66-11-2.31-12.78-5-2.25-1.45-9.94,3.52-7.69,3.76,1.71,5.38,5.5,6.06,9.53.44,2.66-.49,8.87,1.81,10.88a1.16,1.16,0,0,0,1.76.26,7.81,7.81,0,0,0,1.11-2.66c.51-1.53-1.47-4.55-1.81-6.18a19.35,19.35,0,0,1-.74-5.86c.22-1.92,1.31-3.57,2.26-5.21,2.11-3.65,5.79-6,10.14-4.88s4.94,5.2,5.37,9.08a8,8,0,0,0,3.29,6.14c1.14,1,2.1,2.77,3.48,1.71,2.25-1.74-.37-3.71-1.44-5.16,0,0-1.37-1.84-2.4-3.49a7.79,7.79,0,0,1-1.16-3.85l-.26-2.69c-.17-4.73,6.66-3.69,8.43.84,2,5.14,7.43,8.62,6,14.7-1.16,4.79-5.47,8.94-10.6,8.58-4.43-.31-6.76-3.85-9-7.51,0,0-3.64-11.33-5-8.81" transform="translate(-44.06 -13.82)"/>
        <path class="cls-13" d="M340,525.63a6.59,6.59,0,0,0-.42,4.39c.73,3.55,3.24,7.09,1.79,11-1.61,4.29-7.31,8.35-11.92,8.06s-6.78-4.48-8-8.36c-1.06-3.44,1.66-11-2.31-12.78-5-2.25-1.45-9.94,3.52-7.69,3.76,1.71,5.38,5.5,6.06,9.53.44,2.66-.49,8.87,1.81,10.88a1.16,1.16,0,0,0,1.76.26,7.81,7.81,0,0,0,1.11-2.66c.51-1.53-1.47-4.55-1.81-6.18a19.35,19.35,0,0,1-.74-5.86c.22-1.92,1.31-3.57,2.26-5.21,2.11-3.65,5.79-6,10.14-4.88s4.94,5.2,5.37,9.08a8,8,0,0,0,3.29,6.14c1.14,1,2.1,2.77,3.48,1.71,2.25-1.74-.37-3.71-1.44-5.16,0,0-1.37-1.84-2.4-3.49a7.79,7.79,0,0,1-1.16-3.85l-.26-2.69c-.17-4.73,6.66-3.69,8.43.84,2,5.14,7.43,8.62,6,14.7-1.16,4.79-5.47,8.94-10.6,8.58-4.43-.31-6.76-3.85-9-7.51C344.92,534.44,341.29,523.11,340,525.63Z" transform="translate(-44.06 -13.82)"/>
        <path class="cls-12" d="M355.54,582c.81-3.3,1.49-6.7.83-10-.61-3.08-2.29-4.91-4-7.38-1.58-2.23-4.06-4.8-6.9-5.16a15.26,15.26,0,0,0-9.3,2c-1.66.87-2.22.8-3.7,2a8.89,8.89,0,0,0-3.09,4.12,44.33,44.33,0,0,0-1.77,10,21.54,21.54,0,0,0,.24,5.13C329,587.91,324,590,324,590a12.12,12.12,0,0,1-7.23-2.12s-4.81-.69-13.23-9.86c-2-2.21-3.31-4.08-3.66-7.4-.38-3.62,1.47-6.78,1.62-10.32.12-2.77-1.3-4.45-2.41-6.88-1.41-3.11-2.94-6.57-2.77-10,.09-1.71.58-3.3.8-5a30.45,30.45,0,0,0,0-3.87c0-5.58,6.28-9.89,11.67-8.85,6.11,1.18,8.87,7.59,8.63,13.14-.09,2.09.21,2.27,1,4.17a29.5,29.5,0,0,1-.68,22.55c-3.76,1.88-5.74-.25-6-3.11-.14-1.78.77-3.48.36-5.29-.46-2-1.74-10.29-2.55-12.12-1.36-3.07.62-7.58-1.47-10.14-1.73-2.11-2.5-.34-2.5-.34,0,.33,0,.66.06,1a9.29,9.29,0,0,1,.06,2.87c-.39,4.27-1.56,7.57.49,11.72.82,1.66,2.16,2.94,2.92,4.62a12.1,12.1,0,0,1,.9,5c0,3.58-2.87,8.59-.8,11.57,0,0,9.44,12.52,10.5.31.49-5.68,2-11.57,7.08-14.83s10.63-5.83,16.62-5.91c10.87-.15,20.11,10.62,21.49,20.92a26.14,26.14,0,0,1-3.39,17c-2.29,4.06-4.85,9.4-10,10.19s-6.29-3.72-6.6-8.21c-.22-3.25-.13-6.37-.14-9.61,0-1.72-.07-3.45-.07-5.17a6.16,6.16,0,0,0-1-3.44,1.66,1.66,0,0,0-2.9.5c-.42,1.19-.05,3.51,0,4.75.13,3.17.9,6.25,1.08,9.41a44.19,44.19,0,0,1-.87,9.93c-.35,2-.5,4.2-1.54,6-2.79,5-9,4.16-13.44,2.08a22.15,22.15,0,0,1-3.34-2.37,15.4,15.4,0,0,0-3.86-2.08c-1.82-.62-2.2,1.58-2.2,1.58-3.22,8.15-10.75,24.21-21.29,14.77a8.81,8.81,0,0,1-3.13-6.87c0-3.3,1.61-5.74,2.63-8.76,1.55-4.58,3.74-11.51.64-15.93-.94-1.34-2-2.8-3.07-4-.87-1-.92-1.19-2.22-.86-2.68.69-2.34,2.79-2.06,5,.73,5.93,3.05,11.82,2.3,17.86-.68,5.45-2.87,11-8.37,13.09s-10.82-.82-13.05-6a12,12,0,0,1-.72-7.88c.66-2.3,1.62-3.94,2-6.22a22.27,22.27,0,0,0,.51-4.47c-.09-1.49-1.37-3.58-1.91-5-.69-1.78-.86-4-2.34-5.15l-.63.88c.35,1.67.28,3.3.51,5,.18,1.32.73,2.48,1,3.78,1.3,5.48-1.07,11.17-7.36,11.41-5.39.2-10-3.75-11.75-8.68-1-2.8-.71-5.87-.7-8.79,0-3.08-.21-6.22-.06-9.29a44.46,44.46,0,0,1,1.93-9,7.59,7.59,0,0,1,4.28-5.28c1.19-.5,1.79-1.16,3-1.56s3.08-.52,4.39-.84a6.45,6.45,0,0,1,4.39.4c.75.36,2.1.55,2.69.86a15.93,15.93,0,0,0,4.61,1.71c1.63.3,3.23.88,4.88,1.07a54.78,54.78,0,0,0,8.36,0c2.55-.11,3.4-1,3.58-3.66a5.39,5.39,0,0,0-.4-2.48l-1.6.24c-4.88,2.3-10.71,3.2-15.63.31a17.4,17.4,0,0,1-3.63-3.14c-.78-.81-1.72-2.32-2.8-2.73-2.49-.94-4.41,1.59-5.9,3.05-4.06,4-9,4-12.79-.45-3.68-4.31-3.71-10.78-.83-15.57s8.69-5.2,13.62-6.56A21.52,21.52,0,0,1,277,535.32c2.44,1.6,7,5.25,8.3,2.42.67-1.49-1.05-2.44-1.05-2.44-1.88-2.06-3.17-1.92-5.65-3.73a12.27,12.27,0,0,0-7.24-2c-3.58.14-7.18.75-10.76.75-2.7,0-5.67.39-8.32-.31-2.49-.66-4.91-1.45-6.36-3.6-1.77-2.63-1.18-4.84-1.27-7.73-.18-5.45,8.28-5.43,8.46,0,.05,1.67-.77,2.66.6,3.57,1,.69,2.62.35,3.79.33,4.05-.07,8.1-.66,12.16-.73,5.45-.09,11.5-.38,16.31,2.83,4.34,2.89,10.6,9.14,9,14.9-1.65,6-8.75,7.13-14,6.4-4-.56-6.6-2.64-10.08-4.52a12.74,12.74,0,0,0-9.09-.51c-2.14.76-6.72.62-8.3,2.58a6.1,6.1,0,0,0-.93,3.75s.63,2.48,1.6,1.67c.68-.56,1.22-1.26,1.89-1.83a13.84,13.84,0,0,1,4-2.6,13.35,13.35,0,0,1,7.89-.45c3.46.91,5.1,3.87,7.64,6.06,2.25,1.94,5.38,1.5,7.89.34,3-1.39,5.69-2.73,9-1.27a10,10,0,0,1,5,5.85c1.77,4.8.54,9.25-3.48,12.61a14.91,14.91,0,0,1-9.47,3.74c-3.2-.06-6.36,1-9.52.34-3.34-.68-7.25-1-10.39-2.33a7.58,7.58,0,0,1-2.05-1.22c-2.47-.91-5.12,2.92-5.12,2.92-.35,1.55-1.08,3-1.31,4.6-.52,3.54,0,7.58,0,11.17,0,3.17-.29,5.75,2.68,7.62,1.39.88.72-.26.36-1.09-.66-1.54-.36-3.3-.52-5-.38-4.13-.52-14.75,2.84-16.14,5.94-2.46,10.24,4.06,13.62,8.13,2.39,2.88,2.15,5.49,2.54,9.16.31,2.93.77,6.33.15,9.24-.55,2.58-1.81,5.22-1.32,7.74.62,3.24,3.21,2.86,4.52.33,3.11-6-.38-13.79-1.19-20-.43-3.28-.7-6.72,1.3-9.54a13.22,13.22,0,0,1,6.08-4.49,10.29,10.29,0,0,1,8.38.2c2.71,1.51,4.34,4.55,6.22,6.93,3.78,4.79,4.43,12.36,3,18.2-.91,3.64-2.72,7-3.77,10.51,0,0-2.88,6.32,2.24,1.29,2.21-2.18,3.44-5.2,4.55-8.08,1-2.56,1.83-5.56,3.42-7.82,4-5.68,11.64-1.32,15.89,1.55,1.36.92,2.11,1.84,3.69,2.33,0,0,2.22-.07,2.93-5.71.83-6.64-3.45-17.22-.34-23.63,2.91-6,11.84-6.73,16.33-2.07,2.38,2.47,2.78,5.51,2.78,8.77a92.3,92.3,0,0,1-.29,11.23s1.58,2.81,3.41-4.67" transform="translate(-44.06 -13.82)"/>
        <path class="cls-13" d="M355.54,582c.81-3.3,1.49-6.7.83-10-.61-3.08-2.29-4.91-4-7.38-1.58-2.23-4.06-4.8-6.9-5.16a15.26,15.26,0,0,0-9.3,2c-1.66.87-2.22.8-3.7,2a8.89,8.89,0,0,0-3.09,4.12,44.33,44.33,0,0,0-1.77,10,21.54,21.54,0,0,0,.24,5.13C329,587.91,324,590,324,590a12.12,12.12,0,0,1-7.23-2.12s-4.81-.69-13.23-9.86c-2-2.21-3.31-4.08-3.66-7.4-.38-3.62,1.47-6.78,1.62-10.32.12-2.77-1.3-4.45-2.41-6.88-1.41-3.11-2.94-6.57-2.77-10,.09-1.71.58-3.3.8-5a30.45,30.45,0,0,0,0-3.87c0-5.58,6.28-9.89,11.67-8.85,6.11,1.18,8.87,7.59,8.63,13.14-.09,2.09.21,2.27,1,4.17a29.5,29.5,0,0,1-.68,22.55c-3.76,1.88-5.74-.25-6-3.11-.14-1.78.77-3.48.36-5.29-.46-2-1.74-10.29-2.55-12.12-1.36-3.07.62-7.58-1.47-10.14-1.73-2.11-2.5-.34-2.5-.34,0,.33,0,.66.06,1a9.29,9.29,0,0,1,.06,2.87c-.39,4.27-1.56,7.57.49,11.72.82,1.66,2.16,2.94,2.92,4.62a12.1,12.1,0,0,1,.9,5c0,3.58-2.87,8.59-.8,11.57,0,0,9.44,12.52,10.5.31.49-5.68,2-11.57,7.08-14.83s10.63-5.83,16.62-5.91c10.87-.15,20.11,10.62,21.49,20.92a26.14,26.14,0,0,1-3.39,17c-2.29,4.06-4.85,9.4-10,10.19s-6.29-3.72-6.6-8.21c-.22-3.25-.13-6.37-.14-9.61,0-1.72-.07-3.45-.07-5.17a6.16,6.16,0,0,0-1-3.44,1.66,1.66,0,0,0-2.9.5c-.42,1.19-.05,3.51,0,4.75.13,3.17.9,6.25,1.08,9.41a44.19,44.19,0,0,1-.87,9.93c-.35,2-.5,4.2-1.54,6-2.79,5-9,4.16-13.44,2.08a22.15,22.15,0,0,1-3.34-2.37,15.4,15.4,0,0,0-3.86-2.08c-1.82-.62-2.2,1.58-2.2,1.58-3.22,8.15-10.75,24.21-21.29,14.77a8.81,8.81,0,0,1-3.13-6.87c0-3.3,1.61-5.74,2.63-8.76,1.55-4.58,3.74-11.51.64-15.93-.94-1.34-2-2.8-3.07-4-.87-1-.92-1.19-2.22-.86-2.68.69-2.34,2.79-2.06,5,.73,5.93,3.05,11.82,2.3,17.86-.68,5.45-2.87,11-8.37,13.09s-10.82-.82-13.05-6a12,12,0,0,1-.72-7.88c.66-2.3,1.62-3.94,2-6.22a22.27,22.27,0,0,0,.51-4.47c-.09-1.49-1.37-3.58-1.91-5-.69-1.78-.86-4-2.34-5.15l-.63.88c.35,1.67.28,3.3.51,5,.18,1.32.73,2.48,1,3.78,1.3,5.48-1.07,11.17-7.36,11.41-5.39.2-10-3.75-11.75-8.68-1-2.8-.71-5.87-.7-8.79,0-3.08-.21-6.22-.06-9.29a44.46,44.46,0,0,1,1.93-9,7.59,7.59,0,0,1,4.28-5.28c1.19-.5,1.79-1.16,3-1.56s3.08-.52,4.39-.84a6.45,6.45,0,0,1,4.39.4c.75.36,2.1.55,2.69.86a15.93,15.93,0,0,0,4.61,1.71c1.63.3,3.23.88,4.88,1.07a54.78,54.78,0,0,0,8.36,0c2.55-.11,3.4-1,3.58-3.66a5.39,5.39,0,0,0-.4-2.48l-1.6.24c-4.88,2.3-10.71,3.2-15.63.31a17.4,17.4,0,0,1-3.63-3.14c-.78-.81-1.72-2.32-2.8-2.73-2.49-.94-4.41,1.59-5.9,3.05-4.06,4-9,4-12.79-.45-3.68-4.31-3.71-10.78-.83-15.57s8.69-5.2,13.62-6.56A21.52,21.52,0,0,1,277,535.32c2.44,1.6,7,5.25,8.3,2.42.67-1.49-1.05-2.44-1.05-2.44-1.88-2.06-3.17-1.92-5.65-3.73a12.27,12.27,0,0,0-7.24-2c-3.58.14-7.18.75-10.76.75-2.7,0-5.67.39-8.32-.31-2.49-.66-4.91-1.45-6.36-3.6-1.77-2.63-1.18-4.84-1.27-7.73-.18-5.45,8.28-5.43,8.46,0,.05,1.67-.77,2.66.6,3.57,1,.69,2.62.35,3.79.33,4.05-.07,8.1-.66,12.16-.73,5.45-.09,11.5-.38,16.31,2.83,4.34,2.89,10.6,9.14,9,14.9-1.65,6-8.75,7.13-14,6.4-4-.56-6.6-2.64-10.08-4.52a12.74,12.74,0,0,0-9.09-.51c-2.14.76-6.72.62-8.3,2.58a6.1,6.1,0,0,0-.93,3.75s.63,2.48,1.6,1.67c.68-.56,1.22-1.26,1.89-1.83a13.84,13.84,0,0,1,4-2.6,13.35,13.35,0,0,1,7.89-.45c3.46.91,5.1,3.87,7.64,6.06,2.25,1.94,5.38,1.5,7.89.34,3-1.39,5.69-2.73,9-1.27a10,10,0,0,1,5,5.85c1.77,4.8.54,9.25-3.48,12.61a14.91,14.91,0,0,1-9.47,3.74c-3.2-.06-6.36,1-9.52.34-3.34-.68-7.25-1-10.39-2.33a7.58,7.58,0,0,1-2.05-1.22c-2.47-.91-5.12,2.92-5.12,2.92-.35,1.55-1.08,3-1.31,4.6-.52,3.54,0,7.58,0,11.17,0,3.17-.29,5.75,2.68,7.62,1.39.88.72-.26.36-1.09-.66-1.54-.36-3.3-.52-5-.38-4.13-.52-14.75,2.84-16.14,5.94-2.46,10.24,4.06,13.62,8.13,2.39,2.88,2.15,5.49,2.54,9.16.31,2.93.77,6.33.15,9.24-.55,2.58-1.81,5.22-1.32,7.74.62,3.24,3.21,2.86,4.52.33,3.11-6-.38-13.79-1.19-20-.43-3.28-.7-6.72,1.3-9.54a13.22,13.22,0,0,1,6.08-4.49,10.29,10.29,0,0,1,8.38.2c2.71,1.51,4.34,4.55,6.22,6.93,3.78,4.79,4.43,12.36,3,18.2-.91,3.64-2.72,7-3.77,10.51,0,0-2.88,6.32,2.24,1.29,2.21-2.18,3.44-5.2,4.55-8.08,1-2.56,1.83-5.56,3.42-7.82,4-5.68,11.64-1.32,15.89,1.55,1.36.92,2.11,1.84,3.69,2.33,0,0,2.22-.07,2.93-5.71.83-6.64-3.45-17.22-.34-23.63,2.91-6,11.84-6.73,16.33-2.07,2.38,2.47,2.78,5.51,2.78,8.77a92.3,92.3,0,0,1-.29,11.23S353.7,589.46,355.54,582Z" transform="translate(-44.06 -13.82)"/>
        <path class="cls-13" d="M268.85,578.9s-7.26-5.92-6.73.27" transform="translate(-44.06 -13.82)"/>
        <path class="cls-13" d="M271.28,607.69s1.08,7.53,6.73,5.92" transform="translate(-44.06 -13.82)"/>
        <path class="cls-13" d="M250.83,584c1.61,1.88,3,3.77,1.88,10.22" transform="translate(-44.06 -13.82)"/>
        <path class="cls-13" d="M312.58,580c3,1.88,6.73,9.42,10.49,4s-2.42-10.23,1.08-14.26" transform="translate(-44.06 -13.82)"/>
        <path class="cls-13" d="M307.6,528.85c-1.88.27-7.26,1.35-6.46,5.65" transform="translate(-44.06 -13.82)"/>
        <path class="cls-13" d="M260.78,536.93c-2.69-.54-14.8,1.35-12.92,5.65" transform="translate(-44.06 -13.82)"/>
        <path class="cls-13" d="M291.46,576.21s7,2.69,7,5.92" transform="translate(-44.06 -13.82)"/>
        <path class="cls-13" d="M285.27,596.12s3.77,2.15,2.42,6.19" transform="translate(-44.06 -13.82)"/>
        <path class="cls-12" d="M246.79,520s5.65,7.8,10.76,7.26" transform="translate(-44.06 -13.82)"/>
        <path class="cls-13" d="M246.79,520s5.65,7.8,10.76,7.26" transform="translate(-44.06 -13.82)"/>
        <path class="cls-12" d="M286.61,529.93s9.42,6.73,4.31,10" transform="translate(-44.06 -13.82)"/>
        <path class="cls-13" d="M286.61,529.93s9.42,6.73,4.31,10" transform="translate(-44.06 -13.82)"/>
        <path class="cls-12" d="M347.15,584.82s-2.42,7.26,1.88,7.8" transform="translate(-44.06 -13.82)"/>
        <path class="cls-13" d="M347.15,584.82s-2.42,7.26,1.88,7.8" transform="translate(-44.06 -13.82)"/>
        <path class="cls-12" d="M356.3,561.68s7.53,10.76,5.65,14" transform="translate(-44.06 -13.82)"/>
        <path class="cls-13" d="M356.3,561.68s7.53,10.76,5.65,14" transform="translate(-44.06 -13.82)"/>
        <path class="cls-12" d="M313.79,595.58a25.36,25.36,0,0,1-5.65,14.26" transform="translate(-44.06 -13.82)"/>
        <path class="cls-13" d="M313.79,595.58a25.36,25.36,0,0,1-5.65,14.26" transform="translate(-44.06 -13.82)"/>
        <path class="cls-12" d="M334.51,526.43s.81-9.69,5.92-6.19" transform="translate(-44.06 -13.82)"/>
        <path class="cls-13" d="M334.51,526.43s.81-9.69,5.92-6.19" transform="translate(-44.06 -13.82)"/>
        <path class="cls-12" d="M273.43,553.07s5.65,3.77,11.84,2.42" transform="translate(-44.06 -13.82)"/>
        <path class="cls-13" d="M273.43,553.07s5.65,3.77,11.84,2.42" transform="translate(-44.06 -13.82)"/>
        <path class="cls-12" d="M273.43,567.06s-12.92-8.34-18-2.42" transform="translate(-44.06 -13.82)"/>
        <path class="cls-13" d="M273.43,567.06s-12.92-8.34-18-2.42" transform="translate(-44.06 -13.82)"/>
        <path class="cls-12" d="M329.93,601.23s1.08,4.57,4-.54,3-14.8,3-14.8" transform="translate(-44.06 -13.82)"/>
        <path class="cls-13" d="M329.93,601.23s1.08,4.57,4-.54,3-14.8,3-14.8" transform="translate(-44.06 -13.82)"/>
        <path class="cls-12" d="M313.25,541.5s4,10.23,2.42,15.07" transform="translate(-44.06 -13.82)"/>
        <path class="cls-13" d="M313.25,541.5s4,10.23,2.42,15.07" transform="translate(-44.06 -13.82)"/>
        <path class="cls-12" d="M304.91,559.26s1.61,1.35-.27,7.8" transform="translate(-44.06 -13.82)"/>
        <path class="cls-13" d="M304.91,559.26s1.61,1.35-.27,7.8" transform="translate(-44.06 -13.82)"/>
        <path class="cls-12" d="M327.51,560.6s7.8-6.19,11.84-5.38" transform="translate(-44.06 -13.82)"/>
        <path class="cls-13" d="M327.51,560.6s7.8-6.19,11.84-5.38" transform="translate(-44.06 -13.82)"/>
        <path class="cls-13" d="M324.55,536.12s.54,11.3,4.84,10" transform="translate(-44.06 -13.82)"/>
        <path class="cls-13" d="M356.3,522.93s7.53,7.53,3.77,11" transform="translate(-44.06 -13.82)"/>
      </g>
      <g class="cls-10">
        <path class="cls-14" d="M377.08,531.61A12,12,0,1,0,355.75,539a12,12,0,1,0,17.75,1.11,11.91,11.91,0,0,0,3.58-8.53" transform="translate(-44.06 -13.82)"/>
        <path class="cls-15" d="M377.08,531.61A12,12,0,1,0,355.75,539a12,12,0,1,0,17.75,1.11A11.91,11.91,0,0,0,377.08,531.61Z" transform="translate(-44.06 -13.82)"/>
        <path class="cls-14" d="M361.13,574.46a12,12,0,0,0-11.51,8.75,11.94,11.94,0,0,0-8.8,15.47,11.92,11.92,0,0,0-14.55,11.21,12,12,0,1,0,12.91,12.36,11.93,11.93,0,0,0,10.36-15.69,11.92,11.92,0,0,0,14.12-8.45,12,12,0,0,0-2.54-23.64" transform="translate(-44.06 -13.82)"/>
        <path class="cls-15" d="M361.13,574.46a12,12,0,0,0-11.51,8.75,11.94,11.94,0,0,0-8.8,15.47,11.92,11.92,0,0,0-14.55,11.21,12,12,0,1,0,12.91,12.36,11.93,11.93,0,0,0,10.36-15.69,11.92,11.92,0,0,0,14.12-8.45,12,12,0,0,0-2.54-23.64Z" transform="translate(-44.06 -13.82)"/>
        <path class="cls-14" d="M308.81,625.29a11.93,11.93,0,0,0-11.26,15.94,12,12,0,1,0,17,6.48,12,12,0,0,0-5.78-22.42" transform="translate(-44.06 -13.82)"/>
        <path class="cls-15" d="M308.81,625.29a11.93,11.93,0,0,0-11.26,15.94,12,12,0,1,0,17,6.48,12,12,0,0,0-5.78-22.42Z" transform="translate(-44.06 -13.82)"/>
        <path class="cls-16" d="M247.85,575.94a12,12,0,0,0,3.63-19.41,11.94,11.94,0,0,0-4.2-13,11.92,11.92,0,0,0-2.49-16.44,12,12,0,1,0-17,2.57,11.92,11.92,0,0,0,2.49,16.44,11.93,11.93,0,0,0,1.28,15.4,11.89,11.89,0,0,0,.72,8.77,11.95,11.95,0,0,0,1.7,22.85,12,12,0,1,0,13.84-17.18" transform="translate(-44.06 -13.82)"/>
        <path class="cls-15" d="M247.85,575.94a12,12,0,0,0,3.63-19.41,11.94,11.94,0,0,0-4.2-13,11.92,11.92,0,0,0-2.49-16.44,12,12,0,1,0-17,2.57,11.92,11.92,0,0,0,2.49,16.44,11.93,11.93,0,0,0,1.28,15.4,11.89,11.89,0,0,0,.72,8.77,11.95,11.95,0,0,0,1.7,22.85,12,12,0,1,0,13.84-17.18Z" transform="translate(-44.06 -13.82)"/>
        <path class="cls-17" d="M374.09,512.18a12,12,0,0,0-7.49-11.09,12,12,0,1,0-19.41-9.34,12.18,12.18,0,0,0,.11,1.55,11.95,11.95,0,0,0-14.88,7.45c-.23,0-.45,0-.68,0a11.94,11.94,0,0,0-9.83,5.16,11.94,11.94,0,0,0-18.65,1.81,11.92,11.92,0,0,0-17.9.13,12,12,0,0,0-19.64-1.76,11.95,11.95,0,0,0-19.69-4.3,12,12,0,1,0-5.56,13.85,11.95,11.95,0,0,0,22.26,8.34,11.94,11.94,0,0,0,22-1.27,12.38,12.38,0,0,0,23,2,11.9,11.9,0,0,0,3.1,1.14,12,12,0,0,0,22.46-1.33,12,12,0,0,0,9.78-7.9c.23,0,.45,0,.68,0h.1a11.95,11.95,0,0,0,22.62,6.67,12,12,0,0,0,7.67-11.15" transform="translate(-44.06 -13.82)"/>
        <path class="cls-15" d="M374.09,512.18a12,12,0,0,0-7.49-11.09,12,12,0,1,0-19.41-9.34,12.18,12.18,0,0,0,.11,1.55,11.95,11.95,0,0,0-14.88,7.45c-.23,0-.45,0-.68,0a11.94,11.94,0,0,0-9.83,5.16,11.94,11.94,0,0,0-18.65,1.81,11.92,11.92,0,0,0-17.9.13,12,12,0,0,0-19.64-1.76,11.95,11.95,0,0,0-19.69-4.3,12,12,0,1,0-5.56,13.85,11.95,11.95,0,0,0,22.26,8.34,11.94,11.94,0,0,0,22-1.27,12.38,12.38,0,0,0,23,2,11.9,11.9,0,0,0,3.1,1.14,12,12,0,0,0,22.46-1.33,12,12,0,0,0,9.78-7.9c.23,0,.45,0,.68,0h.1a11.95,11.95,0,0,0,22.62,6.67A12,12,0,0,0,374.09,512.18Z" transform="translate(-44.06 -13.82)"/>
        <path class="cls-16" d="M381.06,557a11.93,11.93,0,0,0-4.34-9.21,12,12,0,1,0-21.06-8A11.95,11.95,0,0,0,352,560.25a12,12,0,1,0,21.06,8,12,12,0,0,0,8-11.27" transform="translate(-44.06 -13.82)"/>
        <path class="cls-15" d="M381.06,557a11.93,11.93,0,0,0-4.34-9.21,12,12,0,1,0-21.06-8A11.95,11.95,0,0,0,352,560.25a12,12,0,1,0,21.06,8A12,12,0,0,0,381.06,557Z" transform="translate(-44.06 -13.82)"/>
        <path class="cls-16" d="M336.22,578.95a12,12,0,0,0-11.94,11.65,12,12,0,0,0-6,4.69,11.94,11.94,0,0,0-8.94,11.26,11.93,11.93,0,0,0-3.95,2.32,11.94,11.94,0,0,0-11.5,11.63,12,12,0,1,0,15.91,11.58,11.91,11.91,0,0,0,3.95-2.32,11.94,11.94,0,0,0,11.5-11.63,12,12,0,0,0,6-4.69,12,12,0,0,0,8.94-11.26,12,12,0,0,0-4-23.23" transform="translate(-44.06 -13.82)"/>
        <path class="cls-15" d="M336.22,578.95a12,12,0,0,0-11.94,11.65,12,12,0,0,0-6,4.69,11.94,11.94,0,0,0-8.94,11.26,11.93,11.93,0,0,0-3.95,2.32,11.94,11.94,0,0,0-11.5,11.63,12,12,0,1,0,15.91,11.58,11.91,11.91,0,0,0,3.95-2.32,11.94,11.94,0,0,0,11.5-11.63,12,12,0,0,0,6-4.69,12,12,0,0,0,8.94-11.26,12,12,0,0,0-4-23.23Z" transform="translate(-44.06 -13.82)"/>
        <path class="cls-18" d="M234,593.12s-2.94-2.71.55-8.19" transform="translate(-44.06 -13.82)"/>
        <path class="cls-18" d="M231.6,561.5s1.47-6.47,5-7" transform="translate(-44.06 -13.82)"/>
        <path class="cls-18" d="M247.28,543.53s-.76-5.44-10.72-5.94" transform="translate(-44.06 -13.82)"/>
        <path class="cls-18" d="M240.46,515.6s3.58-10.9,8.56-6.41" transform="translate(-44.06 -13.82)"/>
        <path class="cls-18" d="M333.23,524.53s3-2.39,1.49-11.36" transform="translate(-44.06 -13.82)"/>
        <path class="cls-18" d="M310.77,525.86a8.53,8.53,0,0,0,8-3.71" transform="translate(-44.06 -13.82)"/>
        <path class="cls-18" d="M285.35,507.82s4,2.37,1.54,11.33" transform="translate(-44.06 -13.82)"/>
        <path class="cls-18" d="M347.18,491.75s-3.49,9,3.49,12c0,0-2,13.45,9,12.46" transform="translate(-44.06 -13.82)"/>
        <path class="cls-18" d="M352,560.25s5.13-4.23,10.11-5.23" transform="translate(-44.06 -13.82)"/>
        <path class="cls-18" d="M363.12,548.05s5.28,4,13.6-.24" transform="translate(-44.06 -13.82)"/>
        <path class="cls-18" d="M309.79,632.07a48.53,48.53,0,0,0-2-12.76" transform="translate(-44.06 -13.82)"/>
        <path class="cls-18" d="M318.26,595.29s7.49-1.89,9.48,3.59" transform="translate(-44.06 -13.82)"/>
        <path class="cls-18" d="M320.77,606.85s6.94,3.6,4.47,11.27" transform="translate(-44.06 -13.82)"/>
        <path class="cls-18" d="M356.65,586.92s9.07,2.44,7,11.18" transform="translate(-44.06 -13.82)"/>
        <path class="cls-18" d="M305.32,645.72s6.09-3,9.27,2" transform="translate(-44.06 -13.82)"/>
        <path class="cls-18" d="M295.86,522.14s6.48-10,14-7.47" transform="translate(-44.06 -13.82)"/>
        <path class="cls-18" d="M264.46,512.18s7.47-4,9,1.49" transform="translate(-44.06 -13.82)"/>
        <path class="cls-18" d="M246.53,514.17s-3.49,7,3.49,9" transform="translate(-44.06 -13.82)"/>
        <path class="cls-18" d="M334.72,584.92s3,3,0,8" transform="translate(-44.06 -13.82)"/>
        <path class="cls-18" d="M297.35,632.76s-5-3.49,1.49-7.47" transform="translate(-44.06 -13.82)"/>
        <path class="cls-18" d="M300.84,655.18s4.48,6.48,9-1.49" transform="translate(-44.06 -13.82)"/>
        <path class="cls-18" d="M354.15,591.9s6,5.48-3,8.47" transform="translate(-44.06 -13.82)"/>
        <path class="cls-18" d="M329.24,626.28s3,0,3-8.47" transform="translate(-44.06 -13.82)"/>
        <path class="cls-18" d="M237.56,501.21s-12-1-7,6.48" transform="translate(-44.06 -13.82)"/>
        <path class="cls-18" d="M242.54,560.51S245,564,239.05,572" transform="translate(-44.06 -13.82)"/>
        <path class="cls-18" d="M361.63,488.26s-11.46,2.49-5,12" transform="translate(-44.06 -13.82)"/>
        <path class="cls-18" d="M365.12,563s9,7.47-4,11.46" transform="translate(-44.06 -13.82)"/>
      </g>
    </g>
  </g>
  <g id="liver">
    <g class="cls-19">
      <g class="cls-19">
        <path class="cls-20" d="M352.3,397c.3,2.1-2.4,3-4.8,3.3-32.52,3.66-51.31,7.18-62,9.82-24-3.89-63.21-.2-68,37.3,0,0,1,24.13,9.31,25.52,12.61,2.1,14.41-18.91,31.22-19.21,8.71-.3,13.81-9,24.32-7.5,6,.86,12.09-6.12,16.24-13.69,15.62,0,24.68-13.93,33.29-19.93,9.91-6.9,22.51-7.8,25.82-9.91s-5.7-7.8-5.4-5.7" transform="translate(-44.06 -13.82)"/>
        <path class="cls-21" d="M352.3,397c.3,2.1-2.4,3-4.8,3.3-32.52,3.66-51.31,7.18-62,9.82-24-3.89-63.21-.2-68,37.3,0,0,1,24.13,9.31,25.52,12.61,2.1,14.41-18.91,31.22-19.21,8.71-.3,13.81-9,24.32-7.5,6,.86,12.09-6.12,16.24-13.69,15.62,0,24.68-13.93,33.29-19.93,9.91-6.9,22.51-7.8,25.82-9.91S352,394.92,352.3,397Z" transform="translate(-44.06 -13.82)"/>
      </g>
      <g class="cls-19">
        <path class="cls-22" d="M219.62,460.36s-9-35.42,3.9-56.74,37.82-22.21,51-18.61c16.21,8.11,60.64-3.9,78.35,10.51,0,0,6.6,4.2-19.81,6.6s-41.73,10.81-76.25,16.51-9.31,30.32-37.22,41.73" transform="translate(-44.06 -13.82)"/>
        <path class="cls-21" d="M219.62,460.36s-9-35.42,3.9-56.74,37.82-22.21,51-18.61c16.21,8.11,60.64-3.9,78.35,10.51,0,0,6.6,4.2-19.81,6.6s-41.73,10.81-76.25,16.51S247.54,449,219.62,460.36Z" transform="translate(-44.06 -13.82)"/>
        <path class="cls-21" d="M293.47,388s4.5,3.6-3,22.21" transform="translate(-44.06 -13.82)"/>
        <path class="cls-21" d="M289.14,443.66s-7-5.09,2.92-33.57" transform="translate(-44.06 -13.82)"/>
      </g>
    </g>
  </g>
  <g id="pancreas">
    <g class="cls-23">
      <g class="cls-23">
        <path class="cls-24" d="M323.3,462.7a1.85,1.85,0,0,0-2.1-.18,2.68,2.68,0,0,0-.57-.65,2.75,2.75,0,0,0-2.57-.51,3.13,3.13,0,0,0-1.08-1.84,3.23,3.23,0,0,0-2.73-.67,3.15,3.15,0,0,0-.73-.88,3.25,3.25,0,0,0-3.63-.35,3.92,3.92,0,0,0-6.32.54,3.93,3.93,0,0,0-5.09.56,3.92,3.92,0,0,0-6.25.55,3.92,3.92,0,0,0-5.41-.41,3.92,3.92,0,0,0-6-.65,3.93,3.93,0,0,0-4.25-.09,3.94,3.94,0,0,0-3.66.88,3.93,3.93,0,0,0-5,.78l-.15.19a3.94,3.94,0,0,0-4.72,1l-.05.07a3.81,3.81,0,0,0-.91-1.11,3.93,3.93,0,0,0-5.44.41,3.89,3.89,0,0,0-3.84-2.13,3.93,3.93,0,0,0-1.2.31,3.91,3.91,0,0,0-6.14-1.5,3.92,3.92,0,0,0-6.24.42,3.91,3.91,0,0,0-5.82,2.23,3.94,3.94,0,0,0-1.09-.05,3.87,3.87,0,0,0-3.53,4.17v0a3.84,3.84,0,0,0-2.51,4.6,3.79,3.79,0,0,0,.4,1,3.8,3.8,0,0,0-.52,6.29l-.13.13a3.8,3.8,0,0,0,.45,5.41,3.91,3.91,0,0,0,3.07.86,3.8,3.8,0,0,0,1.29,3.71,3.93,3.93,0,0,0,5.35-.31,3.79,3.79,0,0,0,1.33,2.36,3.93,3.93,0,0,0,5,0,3.8,3.8,0,0,0,1.07,1.44,3.93,3.93,0,0,0,5.47-.44,3.92,3.92,0,0,0,6.62.52l.18.17a3.93,3.93,0,0,0,5.49-.46,3.83,3.83,0,0,0,.53-.82,3.91,3.91,0,0,0,2.82-1.36,3.86,3.86,0,0,0,.41-.59,3.92,3.92,0,0,0,2.79.4l.29-.08a3.93,3.93,0,0,0,2.58.29,3.88,3.88,0,0,0,2.85-2.61,3.93,3.93,0,0,0,1.17-.09,3.89,3.89,0,0,0,2.24-1.44,3.92,3.92,0,0,0,2.9-.15,5.52,5.52,0,0,0,9.06.27,3.91,3.91,0,0,0,4.68-2,4,4,0,0,0,.95-.09A3.89,3.89,0,0,0,297,479a3.91,3.91,0,0,0,4.53-1.49,3.92,3.92,0,0,0,3.28.72,3.88,3.88,0,0,0,2.81-2.5,3.23,3.23,0,0,0,3.25-1.63,3.12,3.12,0,0,0,.36-1.08,3.21,3.21,0,0,0,2.29-1.62,3.11,3.11,0,0,0,.33-2.1,2.74,2.74,0,0,0,2.2-1.41,2.68,2.68,0,0,0,.17-.38,1.82,1.82,0,0,0,.24.16,1.85,1.85,0,0,0,2.49-.74,1.8,1.8,0,0,0,.12-.29,2.74,2.74,0,0,0,1.86-.95l.09-.11a1.85,1.85,0,0,0,2.47-.29,1.79,1.79,0,0,0-.21-2.55" transform="translate(-44.06 -13.82)"/>
        <path class="cls-25" d="M323.3,462.7a1.85,1.85,0,0,0-2.1-.18,2.68,2.68,0,0,0-.57-.65,2.75,2.75,0,0,0-2.57-.51,3.13,3.13,0,0,0-1.08-1.84,3.23,3.23,0,0,0-2.73-.67,3.15,3.15,0,0,0-.73-.88,3.25,3.25,0,0,0-3.63-.35,3.92,3.92,0,0,0-6.32.54,3.93,3.93,0,0,0-5.09.56,3.92,3.92,0,0,0-6.25.55,3.92,3.92,0,0,0-5.41-.41,3.92,3.92,0,0,0-6-.65,3.93,3.93,0,0,0-4.25-.09,3.94,3.94,0,0,0-3.66.88,3.93,3.93,0,0,0-5,.78l-.15.19a3.94,3.94,0,0,0-4.72,1l-.05.07a3.81,3.81,0,0,0-.91-1.11,3.93,3.93,0,0,0-5.44.41,3.89,3.89,0,0,0-3.84-2.13,3.93,3.93,0,0,0-1.2.31,3.91,3.91,0,0,0-6.14-1.5,3.92,3.92,0,0,0-6.24.42,3.91,3.91,0,0,0-5.82,2.23,3.94,3.94,0,0,0-1.09-.05,3.87,3.87,0,0,0-3.53,4.17v0a3.84,3.84,0,0,0-2.51,4.6,3.79,3.79,0,0,0,.4,1,3.8,3.8,0,0,0-.52,6.29l-.13.13a3.8,3.8,0,0,0,.45,5.41,3.91,3.91,0,0,0,3.07.86,3.8,3.8,0,0,0,1.29,3.71,3.93,3.93,0,0,0,5.35-.31,3.79,3.79,0,0,0,1.33,2.36,3.93,3.93,0,0,0,5,0,3.8,3.8,0,0,0,1.07,1.44,3.93,3.93,0,0,0,5.47-.44,3.92,3.92,0,0,0,6.62.52l.18.17a3.93,3.93,0,0,0,5.49-.46,3.83,3.83,0,0,0,.53-.82,3.91,3.91,0,0,0,2.82-1.36,3.86,3.86,0,0,0,.41-.59,3.92,3.92,0,0,0,2.79.4l.29-.08a3.93,3.93,0,0,0,2.58.29,3.88,3.88,0,0,0,2.85-2.61,3.93,3.93,0,0,0,1.17-.09,3.89,3.89,0,0,0,2.24-1.44,3.92,3.92,0,0,0,2.9-.15,5.52,5.52,0,0,0,9.06.27,3.91,3.91,0,0,0,4.68-2,4,4,0,0,0,.95-.09A3.89,3.89,0,0,0,297,479a3.91,3.91,0,0,0,4.53-1.49,3.92,3.92,0,0,0,3.28.72,3.88,3.88,0,0,0,2.81-2.5,3.23,3.23,0,0,0,3.25-1.63,3.12,3.12,0,0,0,.36-1.08,3.21,3.21,0,0,0,2.29-1.62,3.11,3.11,0,0,0,.33-2.1,2.74,2.74,0,0,0,2.2-1.41,2.68,2.68,0,0,0,.17-.38,1.82,1.82,0,0,0,.24.16,1.85,1.85,0,0,0,2.49-.74,1.8,1.8,0,0,0,.12-.29,2.74,2.74,0,0,0,1.86-.95l.09-.11a1.85,1.85,0,0,0,2.47-.29A1.79,1.79,0,0,0,323.3,462.7Z" transform="translate(-44.06 -13.82)"/>
        <path class="cls-26" d="M255.31,475.63s4.72-.86,3.71,2.49c0,0,3.67-.33,2.79,1.92,0,0,5.72-1.83,5.17,1.71,0,0,2.83,0,1.53,2.48,0,0,3.31.53-.34,2.3" transform="translate(-44.06 -13.82)"/>
        <path class="cls-26" d="M286.83,458.86s-4.43.79-2.29,5.17c0,0-3.18-1.45-3,.71,0,0-4.66,1.51-1.81,4.09" transform="translate(-44.06 -13.82)"/>
        <path class="cls-26" d="M301.55,477.48s1.38-5.32-3.08-4c0,0-2.85-2.57-4.89,1.32,0,0-1-6-3.62-3.81" transform="translate(-44.06 -13.82)"/>
        <path class="cls-26" d="M226.11,475.6a4,4,0,0,1,5.74-1.54,3,3,0,0,1,1.85,3.54s4.64-1.73,4.17,2.67" transform="translate(-44.06 -13.82)"/>
        <path class="cls-26" d="M245.42,457s-5.65,1.13-3.15,4.61c0,0-5.19-1.92-5.4,2.89" transform="translate(-44.06 -13.82)"/>
        <path class="cls-26" d="M313.53,458s1.38,2.21-1.27,4.19" transform="translate(-44.06 -13.82)"/>
        <path class="cls-26" d="M255.94,468.16s2.73,3.67,1.47,6.62-6.31-2.26-6.31-2.26" transform="translate(-44.06 -13.82)"/>
      </g>
    </g>
  </g>
  <g id="kidneys">
    <g class="cls-27">
      <g class="cls-27">
        <path class="cls-28" d="M322.95,501.1c-5.38-2.51-9.36-7.68-11.91-12a22.59,22.59,0,0,0,10.21,2.82l.84,0a1.4,1.4,0,1,0-.15-2.8c-5.17.28-10.38-2.7-13.4-4.83-.63-1.4-1-2.29-1-2.33a1.39,1.39,0,0,0-.26-.44V453.16h-5.13v32.33l-.06.07c-8.9,11.81-23.89,18.56-24,18.63a1.4,1.4,0,1,0,1.14,2.56c.59-.26,13.61-6.13,23-16.84v54.47h5.13V488.16c.5,1,1.07,2,1.73,3.05,3.69,6,8,10.2,12.73,12.42a1.4,1.4,0,0,0,1.18-2.54" transform="translate(-44.06 -13.82)"/>
        <path class="cls-29" d="M322.95,501.1c-5.38-2.51-9.36-7.68-11.91-12a22.59,22.59,0,0,0,10.21,2.82l.84,0a1.4,1.4,0,1,0-.15-2.8c-5.17.28-10.38-2.7-13.4-4.83-.63-1.4-1-2.29-1-2.33a1.39,1.39,0,0,0-.26-.44V453.16h-5.13v32.33l-.06.07c-8.9,11.81-23.89,18.56-24,18.63a1.4,1.4,0,1,0,1.14,2.56c.59-.26,13.61-6.13,23-16.84v54.47h5.13V488.16c.5,1,1.07,2,1.73,3.05,3.69,6,8,10.2,12.73,12.42a1.4,1.4,0,0,0,1.18-2.54Z" transform="translate(-44.06 -13.82)"/>
        <path class="cls-30" d="M323.92,516.13c-11.24-7.07-20.93-26.3-24.31-33.59V459.46h-5.13v44.38c-4.12,3.43-13.51,5.47-17.23,6a1.4,1.4,0,0,0,.41,2.77,69.09,69.09,0,0,0,8.59-1.94,34.56,34.56,0,0,0,8.23-3.44v.25a33.75,33.75,0,0,1-17.93,13.61,1.4,1.4,0,1,0,.87,2.66,37,37,0,0,0,17.06-11.53v38.43h5.13V502.82a3.57,3.57,0,0,0,0-.54,2.17,2.17,0,0,0,0-.38v-13c1.1,2.15,2.39,4.58,3.86,7.11,6.38,11,12.76,18.54,19,22.44a1.4,1.4,0,0,0,1.49-2.37" transform="translate(-44.06 -13.82)"/>
        <path class="cls-31" d="M323.92,516.13c-11.24-7.07-20.93-26.3-24.31-33.59V459.46h-5.13v44.38c-4.12,3.43-13.51,5.47-17.23,6a1.4,1.4,0,0,0,.41,2.77,69.09,69.09,0,0,0,8.59-1.94,34.56,34.56,0,0,0,8.23-3.44v.25a33.75,33.75,0,0,1-17.93,13.61,1.4,1.4,0,1,0,.87,2.66,37,37,0,0,0,17.06-11.53v38.43h5.13V502.82a3.57,3.57,0,0,0,0-.54,2.17,2.17,0,0,0,0-.38v-13c1.1,2.15,2.39,4.58,3.86,7.11,6.38,11,12.76,18.54,19,22.44a1.4,1.4,0,0,0,1.49-2.37Z" transform="translate(-44.06 -13.82)"/>
        <path class="cls-32" d="M267.89,542.77c-10.8.55-22-11.41-19.57-32.89,2.08-18,8.81-31.88,19.57-32.89,9.35-.88,22.6,5.51,12.83,32.87-.43,1.22.78,4.6,1.17,5.83,7.23,22.86-4.94,26.63-14,27.09" transform="translate(-44.06 -13.82)"/>
        <path class="cls-33" d="M267.89,542.77c-10.8.55-22-11.41-19.57-32.89,2.08-18,8.81-31.88,19.57-32.89,9.35-.88,22.6,5.51,12.83,32.87-.43,1.22.78,4.6,1.17,5.83C289.12,538.54,276.94,542.31,267.89,542.77Z" transform="translate(-44.06 -13.82)"/>
        <path class="cls-32" d="M334.91,542.3c10.8.55,22-11.41,19.57-32.89-2.08-18-8.81-31.88-19.57-32.89-9.35-.88-22.59,5.51-12.83,32.87.43,1.22-.78,4.6-1.17,5.83-7.23,22.86,4.94,26.63,14,27.09" transform="translate(-44.06 -13.82)"/>
        <path class="cls-33" d="M334.91,542.3c10.8.55,22-11.41,19.57-32.89-2.08-18-8.81-31.88-19.57-32.89-9.35-.88-22.59,5.51-12.83,32.87.43,1.22-.78,4.6-1.17,5.83C313.68,538.08,325.86,541.85,334.91,542.3Z" transform="translate(-44.06 -13.82)"/>
        <path class="cls-34" d="M330.43,512.56s-3.44,1-8.85-5.63" transform="translate(-44.06 -13.82)"/>
        <path class="cls-34" d="M273.25,482.79s-14.46-1.4-16.8,15.63" transform="translate(-44.06 -13.82)"/>
        <path class="cls-34" d="M279.55,526.18s0,14.93-16.8,11.2" transform="translate(-44.06 -13.82)"/>
        <path class="cls-34" d="M329.94,482.32s6.07-2.8,13.53,6.3" transform="translate(-44.06 -13.82)"/>
        <path class="cls-34" d="M323.17,525.71s-2.1,11.43,9.56,12.13" transform="translate(-44.06 -13.82)"/>
        <path class="cls-34" d="M253,514s-1.63,7,2.57,11.9" transform="translate(-44.06 -13.82)"/>
        <path class="cls-34" d="M343,534.34s4.43-1.87,6.07-8.63" transform="translate(-44.06 -13.82)"/>
      </g>
    </g>
  </g>
  <g id="spleen">
    <g class="cls-35">
      <g class="cls-35">
        <path class="cls-36" d="M366.36,420.46s-7.32-1.19-9.94,16.46c-.85,6.39,4.21,13.18.41,20.5-3.48,6.76-9.6,11.64-8.19,17.64,3.38,14.38,51.53-19,17.72-54.61" transform="translate(-44.06 -13.82)"/>
        <path class="cls-37" d="M366.36,420.46s-7.32-1.19-9.94,16.46c-.85,6.39,4.21,13.18.41,20.5-3.48,6.76-9.6,11.64-8.19,17.64C352,489.45,400.17,456.08,366.36,420.46Z" transform="translate(-44.06 -13.82)"/>
      </g>
      <g class="cls-35">
        <path class="cls-38" d="M336.4,432.59s-1.53,10.84,8.17,12.09,13.52-6.43,23.22-5.18" transform="translate(-44.06 -13.82)"/>
        <path class="cls-39" d="M324.7,446.93c4.19.15,13.13-10,18.88-9.32s5.69,12.54,7.8,18.94,7.3,8.06,10.37,7.58" transform="translate(-44.06 -13.82)"/>
      </g>
      <g class="cls-35">
        <path class="cls-40" d="M363.48,441.45a2.19,2.19,0,0,0-.12-.3c-.78-1.64-7.89-17.15,1.4-20.48,9.81-3.52,24.88,8.22,20.16,31.19a47,47,0,0,1-27.09,28.63c-5.73,1.57-12.11-2.25-9.29-8.82,0,0,19.88-14.16,14.94-30.21" transform="translate(-44.06 -13.82)"/>
        <path class="cls-37" d="M363.48,441.45a2.19,2.19,0,0,0-.12-.3c-.78-1.64-7.89-17.15,1.4-20.48,9.81-3.52,24.88,8.22,20.16,31.19a47,47,0,0,1-27.09,28.63c-5.73,1.57-12.11-2.25-9.29-8.82C348.54,471.66,368.42,457.51,363.48,441.45Z" transform="translate(-44.06 -13.82)"/>
        <path class="cls-37" d="M364.22,421.15s-.31-.76,6.11,2.43,6.25,5,2.12,13.48,5.8,7,4.76,13.48-8,5.27-10.06,13.14-5.16,21.35-17.51,15" transform="translate(-44.06 -13.82)"/>
      </g>
    </g>
  </g>
  <g id="lungs">
    <g class="cls-41">
      <g class="cls-41">
        <path class="cls-42" d="M314.93,276.05s-5.58,18.51-5.44,36.65c1.5,13.83-5.41,33.38,11.43,43.31s24.36,10.53,45.41,9.32c0,0-34.86-138.3-51.4-89.28" transform="translate(-44.06 -13.82)"/>
        <path class="cls-43" d="M314.93,276.05s-5.58,18.51-5.44,36.65c1.5,13.83-5.41,33.38,11.43,43.31s24.36,10.53,45.41,9.32C366.33,365.33,331.47,227,314.93,276.05Z" transform="translate(-44.06 -13.82)"/>
        <path class="cls-42" d="M299.85,283.83s6.32,4.81-1.2,28.87c-1.5,13.83,5.41,33.38-11.43,43.31s-24.36,10.53-45.41,9.32c0,0,41.5-130.52,58-81.5" transform="translate(-44.06 -13.82)"/>
        <path class="cls-43" d="M299.85,283.83s6.32,4.81-1.2,28.87c-1.5,13.83,5.41,33.38-11.43,43.31s-24.36,10.53-45.41,9.32C241.81,365.33,283.31,234.81,299.85,283.83Z" transform="translate(-44.06 -13.82)"/>
        <path class="cls-44" d="M326.71,290l-13-24.7a6.74,6.74,0,0,0-2.14-2.41V217.45a1.53,1.53,0,0,0-1.53-1.53H299.51a1.53,1.53,0,0,0-1.53,1.53v45.24a6.74,6.74,0,0,0-1.9,2.31l-9.49,19a1.76,1.76,0,0,0-.1,1.32c2.57,8,10.81,7.59,13.39,2.45l5-10,8.61,16.34c2.68,5.09,10.93,5.36,13.33-2.73a1.75,1.75,0,0,0-.13-1.32" transform="translate(-44.06 -13.82)"/>
        <path class="cls-43" d="M326.71,290l-13-24.7a6.74,6.74,0,0,0-2.14-2.41V217.45a1.53,1.53,0,0,0-1.53-1.53H299.51a1.53,1.53,0,0,0-1.53,1.53v45.24a6.74,6.74,0,0,0-1.9,2.31l-9.49,19a1.76,1.76,0,0,0-.1,1.32c2.57,8,10.81,7.59,13.39,2.45l5-10,8.61,16.34c2.68,5.09,10.93,5.36,13.33-2.73A1.75,1.75,0,0,0,326.71,290Z" transform="translate(-44.06 -13.82)"/>
        <path class="cls-45" d="M225.32,329.67S222,337.44,225,368c.65,8.39,4.09,8.82,25.82-4.3,0,0,8.62-21.14-25.49-34" transform="translate(-44.06 -13.82)"/>
        <path class="cls-43" d="M225.32,329.67S222,337.44,225,368c.65,8.39,4.09,8.82,25.82-4.3C250.81,363.69,259.44,342.56,225.32,329.67Z" transform="translate(-44.06 -13.82)"/>
        <path class="cls-45" d="M382.81,329.67s3.34,7.77.33,38.32c-.65,8.39-4.09,8.82-25.82-4.3,0,0-8.62-21.14,25.49-34" transform="translate(-44.06 -13.82)"/>
        <path class="cls-43" d="M382.81,329.67s3.34,7.77.33,38.32c-.65,8.39-4.09,8.82-25.82-4.3C357.33,363.69,348.7,342.56,382.81,329.67Z" transform="translate(-44.06 -13.82)"/>
        <path class="cls-46" d="M376.63,300.14s12,31,4,37.31-19.46,15.66-21.66,21.36-.88,6-13,1.9S321,349.74,318.54,341c-6.15-11.12,0-29.12-3.51-31.17s2.22-65.87,11.57-67.33,29.66,5.21,50,57.67" transform="translate(-44.06 -13.82)"/>
        <path class="cls-43" d="M376.63,300.14s12,31,4,37.31-19.46,15.66-21.66,21.36-.88,6-13,1.9S321,349.74,318.54,341c-6.15-11.12,0-29.12-3.51-31.17s2.22-65.87,11.57-67.33S356.25,247.67,376.63,300.14Z" transform="translate(-44.06 -13.82)"/>
        <path class="cls-46" d="M231.51,300.14s-12,31-4,37.31,19.46,15.66,21.66,21.36.88,6,13,1.9,24.88-11,27.36-19.75c6.15-11.12,0-29.12,3.51-31.17s-2.22-65.87-11.57-67.33-29.66,5.21-50,57.67" transform="translate(-44.06 -13.82)"/>
        <path class="cls-43" d="M231.51,300.14s-12,31-4,37.31,19.46,15.66,21.66,21.36.88,6,13,1.9,24.88-11,27.36-19.75c6.15-11.12,0-29.12,3.51-31.17s-2.22-65.87-11.57-67.33S251.88,247.67,231.51,300.14Z" transform="translate(-44.06 -13.82)"/>
        <path class="cls-47" d="M271.63,241.16s-28.92,12.6-41,61.32c-2.11,7.82,19.25,22.56,59.55,11.73,4.51-1.5,5.41-12.93,3.61-32.48-2.41-4.21,2.81-8.72,2.51-15s-5.11-35.43-24.71-25.54" transform="translate(-44.06 -13.82)"/>
        <path class="cls-43" d="M271.63,241.16s-28.92,12.6-41,61.32c-2.11,7.82,19.25,22.56,59.55,11.73,4.51-1.5,5.41-12.93,3.61-32.48-2.41-4.21,2.81-8.72,2.51-15S291.23,231.26,271.63,241.16Z" transform="translate(-44.06 -13.82)"/>
        <path class="cls-47" d="M336.51,241.16s28.92,12.6,41,61.32c-34,20.59-20.76,36.12-61.06,25.3-4.51-1.5-3.9-26.5-2.09-46,.68-2.79-2-5.31-1.73-11.63s4.33-38.84,23.93-28.94" transform="translate(-44.06 -13.82)"/>
        <path class="cls-43" d="M336.51,241.16s28.92,12.6,41,61.32c-34,20.59-20.76,36.12-61.06,25.3-4.51-1.5-3.9-26.5-2.09-46,.68-2.79-2-5.31-1.73-11.63S316.91,231.26,336.51,241.16Z" transform="translate(-44.06 -13.82)"/>
        <path class="cls-48" d="M324.49,261.92c0,1.4-5.58,45.61,7,54.45,11.35,8,28.7-15.13,29.79-16.75" transform="translate(-44.06 -13.82)"/>
        <path class="cls-48" d="M351,311.25s-2.79-9.31.47-14.43" transform="translate(-44.06 -13.82)"/>
        <path class="cls-48" d="M326.35,308.46s9.31,5.58,25.13-35.84" transform="translate(-44.06 -13.82)"/>
        <path class="cls-48" d="M340.77,274.49s-6.52,12.57-3.26,26.06" transform="translate(-44.06 -13.82)"/>
        <path class="cls-48" d="M284,252.15s7.91,84.7-40,52.12" transform="translate(-44.06 -13.82)"/>
        <path class="cls-48" d="M252.81,308.93s7-4.19-5.12-20.94" transform="translate(-44.06 -13.82)"/>
        <path class="cls-48" d="M278.41,300.08s-15.82.93-25.6-29.79" transform="translate(-44.06 -13.82)"/>
        <path class="cls-48" d="M258.4,284.26s4.65-2.33,6.52-13.5" transform="translate(-44.06 -13.82)"/>
        <path class="cls-48" d="M284,279.14s-9.31-14.43-9.77-21.41" transform="translate(-44.06 -13.82)"/>
        <path class="cls-48" d="M323.55,279.14s7,9.31,13.5-22.8" transform="translate(-44.06 -13.82)"/>
      </g>
    </g>
  </g>
  <g id="heart">
    <g class="cls-49">
      <g class="cls-49">
        <path class="cls-50" d="M276.91,340.34s-4.68-11.1-.78-19.36a2.94,2.94,0,0,1,2-1.61,9.15,9.15,0,0,1,6.07.61,1.81,1.81,0,0,1,.89,1.85c-.39,2.57-1.15,9.41,1.12,14l-9.29,4.55" transform="translate(-44.06 -13.82)"/>
        <path class="cls-51" d="M276.91,340.34s-4.68-11.1-.78-19.36a2.94,2.94,0,0,1,2-1.61,9.15,9.15,0,0,1,6.07.61,1.81,1.81,0,0,1,.89,1.85c-.39,2.57-1.15,9.41,1.12,14l-9.29,4.55" transform="translate(-44.06 -13.82)"/>
        <path class="cls-52" d="M276.63,319.76s.67,2.27,8.65,1.29c0,0-3.25-2.88-8.65-1.29" transform="translate(-44.06 -13.82)"/>
      </g>
      <g class="cls-49">
        <path class="cls-53" d="M284.12,370.87s-25.22-19.34,0-39.06c7.39-5.69,39.82-9.67,46.27,30,3.22,19.34-13.27,26.74-46.27,9.1" transform="translate(-44.06 -13.82)"/>
        <path class="cls-51" d="M284.12,370.87s-25.22-19.34,0-39.06c7.39-5.69,39.82-9.67,46.27,30,3.22,19.34-13.27,26.74-46.27,9.1" transform="translate(-44.06 -13.82)"/>
      </g>
      <g class="cls-49">
        <path class="cls-54" d="M308.12,315.48a20.47,20.47,0,0,0,1.56-5.49.79.79,0,0,0-.21-.64,4,4,0,0,0-5.49-.54.79.79,0,0,0-.33.63,14.88,14.88,0,0,1-.88,4.33.78.78,0,0,1-.77.52h0a.78.78,0,0,1-.75-.75l-.21-4.68a.79.79,0,0,0-.34-.62,3.84,3.84,0,0,0-4.21-.21.77.77,0,0,0-.39.69l.12,5.32a.78.78,0,0,1-.6.78l-.75.19a.79.79,0,0,1-.69-.12c-2.07-1.55-4.84-3.65-5.39-4.06a.79.79,0,0,0-.21-.12c-3.62-1.28-4.54,2.08-4.75,3.36a.78.78,0,0,0,.29.75l3.82,3A.78.78,0,0,1,288,319c-5.26,5.31-5.21,13.28-5.2,13.77,0,0,0,0,0,0,1.55,21.25,27.13-1.06,29-2.72a.78.78,0,0,0,.18-.22c1.79-3.4,2.22-9.07-3.61-13.42a.78.78,0,0,1-.24-.94" transform="translate(-44.06 -13.82)"/>
        <path class="cls-51" d="M308.12,315.48a20.47,20.47,0,0,0,1.56-5.49.79.79,0,0,0-.21-.64,4,4,0,0,0-5.49-.54.79.79,0,0,0-.33.63,14.88,14.88,0,0,1-.88,4.33.78.78,0,0,1-.77.52h0a.78.78,0,0,1-.75-.75l-.21-4.68a.79.79,0,0,0-.34-.62,3.84,3.84,0,0,0-4.21-.21.77.77,0,0,0-.39.69l.12,5.32a.78.78,0,0,1-.6.78l-.75.19a.79.79,0,0,1-.69-.12c-2.07-1.55-4.84-3.65-5.39-4.06a.79.79,0,0,0-.21-.12c-3.62-1.28-4.54,2.08-4.75,3.36a.78.78,0,0,0,.29.75l3.82,3A.78.78,0,0,1,288,319c-5.26,5.31-5.21,13.28-5.2,13.77,0,0,0,0,0,0,1.55,21.25,27.13-1.06,29-2.72a.78.78,0,0,0,.18-.22c1.79-3.4,2.22-9.07-3.61-13.42A.78.78,0,0,1,308.12,315.48Z" transform="translate(-44.06 -13.82)"/>
        <path class="cls-55" d="M296.6,337.42s-7-1.43-6.17-6.16,5.76-4.65,3.51-10.79" transform="translate(-44.06 -13.82)"/>
        <path class="cls-56" d="M283.74,314.56s2.74,1.91,4.93-3.79c0,0-4.54-1.4-4.93,3.79" transform="translate(-44.06 -13.82)"/>
      </g>
      <g class="cls-49">
        <path class="cls-57" d="M292.84,342.43s-27.68,16.12-4.93,31.48c10.62,6.45,35.08,12.32,42.66.95,2.28-4.55.57-31.67-19-30.72-1.78-3.91-4.89-11,5.37-16.08a4.8,4.8,0,0,0,2.66-4.54c-.16-3.1-1.9-5.55-5.38-5.55-6.07,2.09-16.5,4.36-18,11.76a103.78,103.78,0,0,1-3.41,12.7" transform="translate(-44.06 -13.82)"/>
        <path class="cls-51" d="M292.84,342.43s-27.68,16.12-4.93,31.48c10.62,6.45,35.08,12.32,42.66.95,2.28-4.55.57-31.67-19-30.72-1.78-3.91-4.89-11,5.37-16.08a4.8,4.8,0,0,0,2.66-4.54c-.16-3.1-1.9-5.55-5.38-5.55-6.07,2.09-16.5,4.36-18,11.76A103.78,103.78,0,0,1,292.84,342.43Z" transform="translate(-44.06 -13.82)"/>
      </g>
      <g class="cls-49">
        <path class="cls-55" d="M291.85,373.45s1.35-.83,1.24-4.81-3.73-5.3-.79-8.79c2.61-3.1,3.45-.2,6.75-2.61,3.73-2.72,4.72-2.88,4.72-2.88" transform="translate(-44.06 -13.82)"/>
        <path class="cls-55" d="M293.84,358.38s-1.57-.28-1.14-5.27-4.27-2.28-4.27-2.28" transform="translate(-44.06 -13.82)"/>
        <path class="cls-55" d="M317.87,375.9s9.39-.73,6-8.11.34-10,3-10.61" transform="translate(-44.06 -13.82)"/>
        <path class="cls-55" d="M323.74,367.76s-3.9,4.79-8.31-3.72-6-3.06-6-3.06" transform="translate(-44.06 -13.82)"/>
        <path class="cls-55" d="M313.44,350.87s7.91.27,9,10.91" transform="translate(-44.06 -13.82)"/>
      </g>
    </g>
  </g>
  <g id="eye">
    <g id="eye-2" data-name="eye">
      <path class="cls-58" d="M252.77,99.08l-15,1.48a10.37,10.37,0,0,1,1.48-11.12l14,4.45A2.66,2.66,0,0,1,252.77,99.08Z" transform="translate(-44.06 -13.82)"/>
      <g>
        <path class="cls-59" d="M237.14,90.09s.86-1.46,1.9.85,1.69,4.28-.37,7.7a2.68,2.68,0,0,1-.32.43c-.43.47-1.35,1.33-1.5.24A11.05,11.05,0,0,1,237.14,90.09Z" transform="translate(-44.06 -13.82)"/>
        <path class="cls-60" d="M237.14,90.15a.89.89,0,0,1,.71-.64,1.24,1.24,0,0,1,.9.52,7.33,7.33,0,0,1,.93,1.66,8.26,8.26,0,0,1,.82,3.71A8.54,8.54,0,0,1,239.42,99c-.15.27-.31.54-.48.81a4.76,4.76,0,0,1-.66.74,2.24,2.24,0,0,1-.86.51.43.43,0,0,1-.5-.22,1.07,1.07,0,0,1-.07-.47c.08.3.28.59.49.43a2.15,2.15,0,0,0,.58-.58,4.45,4.45,0,0,0,.44-.72l.35-.82a10.43,10.43,0,0,0,.79-3.36A9.87,9.87,0,0,0,239,92a10.06,10.06,0,0,0-.6-1.65,1,1,0,0,0-.52-.53A.82.82,0,0,0,237.14,90.15Z" transform="translate(-44.06 -13.82)"/>
        <g class="cls-61">
          <path class="cls-60" d="M238.94,99.14a1.3,1.3,0,0,1-1.05-.4,1.29,1.29,0,0,1-.32-1.08,1.29,1.29,0,0,1,1.05.4A1.3,1.3,0,0,1,238.94,99.14Z" transform="translate(-44.06 -13.82)"/>
          <path class="cls-60" d="M239.7,97.72a1.15,1.15,0,0,1-1,.07A1.14,1.14,0,0,1,238,97a1.14,1.14,0,0,1,1-.07A1.15,1.15,0,0,1,239.7,97.72Z" transform="translate(-44.06 -13.82)"/>
          <path class="cls-60" d="M240.09,96.12c-.2.39-.4.47-.59.48s-.38-.12-.56-.52c.2-.39.4-.47.59-.48S239.91,95.72,240.09,96.12Z" transform="translate(-44.06 -13.82)"/>
          <path class="cls-60" d="M240.31,95.47a.82.82,0,0,1-.69.5.53.53,0,1,1,0-1A.82.82,0,0,1,240.31,95.47Z" transform="translate(-44.06 -13.82)"/>
          <path class="cls-60" d="M240.24,94.57a1,1,0,0,1-.7.65.56.56,0,1,1-.2-1A1,1,0,0,1,240.24,94.57Z" transform="translate(-44.06 -13.82)"/>
          <path class="cls-60" d="M239.78,93.33c0,.44-.11.62-.28.74a.73.73,0,0,1-.78-.12c0-.45.11-.63.28-.74A.74.74,0,0,1,239.78,93.33Z" transform="translate(-44.06 -13.82)"/>
          <path class="cls-60" d="M239.32,92.35a.86.86,0,0,1-.27.83.53.53,0,1,1-.61-.8A.86.86,0,0,1,239.32,92.35Z" transform="translate(-44.06 -13.82)"/>
          <path class="cls-60" d="M238.41,90.72a1.53,1.53,0,0,1,0,1.23.68.68,0,1,1-.9-.44A1.53,1.53,0,0,1,238.41,90.72Z" transform="translate(-44.06 -13.82)"/>
          <path class="cls-60" d="M237,100.44a1.75,1.75,0,0,1-.61-1.19,1.74,1.74,0,0,1,.38-1.28,1.74,1.74,0,0,1,.61,1.19A1.75,1.75,0,0,1,237,100.44Z" transform="translate(-44.06 -13.82)"/>
        </g>
        <path class="cls-62" d="M236.87,95.07c0,.91-.13,1.57.34,1.57a1.67,1.67,0,0,0,1.36-1.57,1.79,1.79,0,0,0-1.36-1.67C236.74,93.4,236.87,94.16,236.87,95.07Z" transform="translate(-44.06 -13.82)"/>
      </g>
      <path class="cls-63" d="M230.22,86.58l23.09,7.32a2.66,2.66,0,0,1-.54,5.18L235,100.84" transform="translate(-44.06 -13.82)"/>
    </g>
  </g>
</svg>
