<?xml version="1.0" encoding="utf-8"?>
<!-- Generator: Adobe Illustrator 20.1.0, SVG Export Plug-In . SVG Version: 6.00 Build 0)  -->
<svg version="1.1" id="Layer_2" xmlns="http://www.w3.org/2000/svg" xmlns:xlink="http://www.w3.org/1999/xlink" x="0px" y="0px"
	 viewBox="0 0 400 400" style="enable-background:new 0 0 400 400;" xml:space="preserve">
<style type="text/css">
	.st0{fill:#FFFFFF;}
</style>
<g>
	<path class="st0" d="M200,299.1c-54.6,0-99.1-44.5-99.1-99.1c0-54.6,44.5-99.1,99.1-99.1c54.6,0,99.1,44.5,99.1,99.1
		C299.1,254.6,254.6,299.1,200,299.1z M200,131.6c-37.7,0-68.4,30.7-68.4,68.4s30.7,68.4,68.4,68.4s68.4-30.7,68.4-68.4
		S237.7,131.6,200,131.6z"/>
	<circle class="st0" cx="303.2" cy="96" r="22.4"/>
	<path class="st0" d="M280.1,393.6H119.9c-62.6,0-113.6-51-113.6-113.6V119.9c0-62.6,51-113.6,113.6-113.6h160.1
		c62.6,0,113.6,51,113.6,113.6v160.1C393.6,342.7,342.7,393.6,280.1,393.6z M119.9,37C74.2,37,37,74.2,37,119.9v160.1
		c0,45.7,37.2,82.9,82.9,82.9h160.1c45.7,0,82.9-37.2,82.9-82.9V119.9c0-45.7-37.2-82.9-82.9-82.9H119.9z"/>
</g>
</svg>
