<?xml version="1.0" encoding="utf-8"?>
<!-- Generator: Adobe Illustrator 20.1.0, SVG Export Plug-In . SVG Version: 6.00 Build 0)  -->
<svg version="1.1" id="Layer_2" xmlns="http://www.w3.org/2000/svg" xmlns:xlink="http://www.w3.org/1999/xlink" x="0px" y="0px"
	 viewBox="0 0 400 400" style="enable-background:new 0 0 400 400;" xml:space="preserve">
<style type="text/css">
	.st0{fill:#FFFFFF;}
</style>
<path class="st0" d="M111.4,324.5l32-136.7c0,0-16.3-33.5,0.8-71.7c15.7-35,73.7-27.4,66,14.1s-17.7,68-17.7,68
	s-14.5,39.9,20.1,49.9s54.3-17.7,54.3-17.7s38.9-39.4,30-117.6S188.9,36.4,163,49.4s-37.3,19-50.6,38.9s-26.7,51-17,86.2
	c0,0,3.9,13.1,14.1,25.7c0.5,0.7,0.9,1.4,1,2.3c0.4,2.9,0.1,10.7-6.9,28.3c0,0-4.2,5.5-12.1,0.8s-29.9-19.5-35.7-40.5
	s-10.7-39.4-5.2-69.1s27.5-72.5,71.8-96.8s93.5-26.1,139.9-12.7s81.2,60.5,85.9,86.3s14.1,62.3-15.9,127.9
	c-30.1,65.6-121.8,83.7-156.2,36.6l-17,62.3c0,0-12.7,41-40.6,72.8c0,0-2.4,2.4-3.9-0.2C113,395.7,108.5,354.9,111.4,324.5z"/>
</svg>
