<?xml version="1.0" encoding="utf-8"?>
<!-- Generator: Adobe Illustrator 20.0.0, SVG Export Plug-In . SVG Version: 6.00 Build 0)  -->
<svg version="1.1" id="Layer_1" xmlns="http://www.w3.org/2000/svg" xmlns:xlink="http://www.w3.org/1999/xlink" x="0px" y="0px"
	 viewBox="0 0 48 45" style="enable-background:new 0 0 48 45;" xml:space="preserve">
<style type="text/css">
	.st0{fill:#FFFFFF;}
</style>
<title>Snapchat-black</title>
<desc>Created with Sketch.</desc>
<g id="Icons">
	<g id="Black" transform="translate(-201.000000, -262.000000)">
		<path id="Snapchat" class="st0" d="M225.5,262L225.5,262c0,0-0.1,0-0.1,0c-0.3,0-0.8,0-0.8,0c-1.1,0-3.2,0.2-5.5,1.2
			c-1.3,0.6-2.5,1.4-3.5,2.3c-1.2,1.1-2.2,2.6-2.9,4.2c-1.1,2.4-0.8,6.4-0.6,9.7l0,0c0,0.3,0,0.7,0.1,1.1c-0.2,0.1-0.4,0.1-0.8,0.1
			c-0.6,0-1.3-0.2-2.1-0.6c-0.2-0.1-0.5-0.2-0.8-0.2c-0.5,0-1,0.1-1.4,0.4c-0.6,0.3-0.9,0.8-1,1.3c-0.1,0.3-0.1,1,0.7,1.7
			c0.4,0.4,1,0.7,1.8,1c0.2,0.1,0.4,0.2,0.7,0.2c0.9,0.3,2.2,0.7,2.6,1.5c0.2,0.4,0.1,1-0.2,1.6c0,0,0,0,0,0.1
			c-0.1,0.2-0.8,1.9-2.4,3.7c-0.9,1-1.9,1.9-2.9,2.6c-1.3,0.8-2.7,1.4-4.1,1.6c-0.6,0.1-1,0.6-0.9,1.2c0,0.2,0,0.3,0.1,0.5
			c0,0,0,0,0,0c0.2,0.5,0.8,1,1.6,1.4c1.1,0.5,2.6,0.9,4.7,1.2c0.1,0.2,0.2,0.7,0.3,1c0.1,0.4,0.2,0.7,0.3,1.1
			c0.1,0.4,0.5,0.9,1.3,0.9c0.3,0,0.7-0.1,1.1-0.2c0.6-0.1,1.5-0.3,2.5-0.3c0.6,0,1.2,0.1,1.8,0.2c1.2,0.2,2.2,0.9,3.4,1.7
			c1.7,1.2,3.7,2.6,6.6,2.6c0.1,0,0.2,0,0.2,0c0.1,0,0.2,0,0.3,0c3,0,4.9-1.4,6.6-2.6l0,0c1.2-0.8,2.2-1.5,3.4-1.7
			c0.6-0.1,1.2-0.2,1.8-0.2c1,0,1.8,0.1,2.5,0.3c0.5,0.1,0.8,0.1,1.1,0.1l0,0h0c0.6,0,1.1-0.3,1.2-0.9c0.1-0.4,0.2-0.7,0.3-1.1
			c0.1-0.3,0.2-0.8,0.3-1c2.1-0.3,3.6-0.7,4.7-1.2c0.9-0.4,1.4-0.9,1.6-1.4c0.1-0.2,0.1-0.3,0.1-0.5c0-0.6-0.4-1.1-0.9-1.2
			c-6.4-1.1-9.3-7.6-9.4-7.9c0,0,0,0,0-0.1c-0.3-0.7-0.4-1.2-0.2-1.6c0.4-0.8,1.7-1.2,2.6-1.5c0.3-0.1,0.5-0.2,0.7-0.2
			c0.9-0.3,1.5-0.7,1.9-1.1c0.5-0.5,0.6-1,0.6-1.3c0-0.8-0.6-1.5-1.5-1.8c-0.3-0.1-0.7-0.2-1-0.2c-0.3,0-0.6,0-1,0.2
			c-0.8,0.4-1.4,0.5-2,0.6c-0.3,0-0.5-0.1-0.7-0.1c0-0.3,0-0.6,0.1-0.9l0-0.1c0.2-3.2,0.5-7.3-0.6-9.7c-0.7-1.6-1.7-3.1-2.9-4.2
			c-1-1-2.2-1.7-3.5-2.3C228.7,262.1,226.5,262,225.5,262"/>
	</g>
</g>
</svg>
